<?xml version="1.0" encoding="utf-8"?>

<!DOCTYPE svg PUBLIC "-//W3C//DTD SVG 1.1//EN" "http://www.w3.org/Graphics/SVG/1.1/DTD/svg11.dtd">
<svg version="1.1" id="Layer_1" xmlns="http://www.w3.org/2000/svg" xmlns:xlink="http://www.w3.org/1999/xlink" x="0px" y="0px"
	 viewBox="0 0 1599.656 1704.259" enable-background="new 0 0 1599.656 1704.259" xml:space="preserve">
<g>
	<path fill="#1F1A17" stroke="#1F1A17" d="M346.417,52.866c14.463-1.216,29.049-0.585,43.557-0.473
		c7.991,1.508,16.151,0.281,24.153,1.654c26.99,2.161,54.137,5.875,79.809,14.823c7.575,3.005,15.386,5.751,21.992,10.704
		c10.602,6.382,19.392,16.612,22.082,28.88c2.364,8.914-0.912,18.211-5.38,25.909c-10.017,15.318-25.875,25.391-41.756,33.799
		c-30.028,14.992-62.42,24.615-95.004,32.268c-39.933,8.756-80.541,14.598-121.307,17.153c-8.374,1.542-16.95-0.056-25.301,1.609
		c-13.877,0.506-27.766,0.18-41.644,0.214c-5.279,0.079-10.445-1.396-15.734-1.069c-5.684,0.349-11.233-1.114-16.894-1.193
		c-25.706-2.442-51.559-6.393-75.836-15.543c-13.36-5.256-26.787-12.639-34.902-24.896c-4.986-7.687-8.272-17.288-5.605-26.416
		c2.622-12.718,12.178-22.217,21.497-30.546c12.077-9.724,26.134-16.466,40.079-23.028c52.257-21.992,108.431-32.808,164.526-39.314
		c12.437-1.171,24.851-2.859,37.344-3.196C330.12,52.528,338.348,53.991,346.417,52.866 M260.62,77.469
		c-32.482,4.693-64.75,11.266-96.174,20.822c-22.127,6.944-44.131,15.037-63.962,27.226c-8.936,5.763-17.974,12.335-23.174,21.868
		c-3.523,6.224-3.557,14.373,0.563,20.338c5.459,7.912,14.193,12.729,22.78,16.59c18.942,8.047,39.404,11.649,59.697,14.361
		c23.984,2.724,48.205,4.401,72.347,3.343c15.971,1.08,31.93-0.495,47.868-1.351c38.717-2.938,77.198-8.576,115.251-16.252
		c25.403-5.402,50.715-11.919,74.699-22.037c14.969-6.359,29.781-14.508,40.045-27.462c6.899-5.65,12.549-14.463,10.906-23.714
		c-1.598-8.306-8.543-14.125-15.352-18.391c-14.069-8.453-30.208-12.516-46.112-15.892c-30.085-5.875-60.833-7.597-91.424-7.53
		C332.461,69.523,296.378,72.382,260.62,77.469z"/>
	<path fill="#DA251D" stroke="#DA251D" d="M260.62,77.469c35.757-5.087,71.841-7.946,107.958-8.081
		c30.591-0.068,61.34,1.654,91.424,7.53c15.903,3.377,32.043,7.44,46.112,15.892c6.809,4.266,13.754,10.085,15.352,18.391
		c1.643,9.252-4.007,18.064-10.906,23.714c0.957-5.346,2.195-11.435-1.024-16.275c-4.333-6.708-11.683-10.636-18.773-13.799
		c-18.211-7.496-37.896-10.422-57.367-12.437c-19.336-1.79-38.796-2.465-58.211-2.105c-42.915,0.563-85.741,4.603-128.228,10.523
		c-27.507,3.917-54.936,8.768-81.734,16.196c-17.243,4.907-34.564,10.49-49.984,19.82c-7.237,4.491-14.665,10.175-17.457,18.56
		c-2.048,6.55,1.429,13.292,6.213,17.659c7.867,7.169,17.862,11.48,27.777,14.992c24.153,8.025,49.612,11.21,74.925,12.831
		c8.644,0.844,17.355,0.18,25.999,1.137c-24.142,1.058-48.363-0.619-72.347-3.343c-20.293-2.712-40.754-6.314-59.697-14.361
		c-8.588-3.86-17.321-8.678-22.78-16.59c-4.119-5.965-4.086-14.114-0.563-20.338c5.2-9.533,14.238-16.106,23.174-21.868
		c19.831-12.189,41.835-20.282,63.962-27.226C195.87,88.735,228.138,82.162,260.62,77.469z"/>
	<path fill="#902929" stroke="#902929" d="M375.185,90.3c19.415-0.36,38.875,0.315,58.211,2.105
		c19.471,2.015,39.156,4.941,57.367,12.437c7.091,3.163,14.44,7.091,18.773,13.799c3.219,4.84,1.981,10.929,1.024,16.275
		c-10.265,12.955-25.076,21.103-40.045,27.462c-23.984,10.118-49.297,16.635-74.699,22.037
		c-38.053,7.676-76.534,13.315-115.251,16.252c-15.937,0.855-31.897,2.431-47.868,1.351c-8.644-0.957-17.355-0.293-25.999-1.137
		c-25.313-1.621-50.771-4.806-74.925-12.831c-9.916-3.512-19.91-7.822-27.777-14.992c-4.783-4.367-8.261-11.109-6.213-17.659
		c2.791-8.385,10.22-14.069,17.457-18.56c15.419-9.33,32.741-14.913,49.984-19.82c26.798-7.428,54.227-12.279,81.734-16.196
		C289.445,94.903,332.27,90.863,375.185,90.3 M300.317,113.789c-39.561,2.454-79.156,8.239-117.018,20.237
		c-12.268,4.221-24.795,8.689-35.262,16.556c-3.86,3.016-8.295,7.687-6.449,13.022c2.769,5.346,8.993,7.473,14.328,9.375
		c18.92,5.616,38.852,5.931,58.425,5.954c10.49-0.405,21.013-0.034,31.458-1.306c37.153-3.05,74.339-9.004,109.736-20.979
		c11.097-3.996,22.386-8.385,31.694-15.802c3.016-2.634,6.28-6.19,5.999-10.467c-1.362-5.369-6.798-8.115-11.559-9.938
		c-14.271-5.144-29.589-6.156-44.604-7.091C324.819,113.463,312.54,112.877,300.317,113.789z"/>
	<path fill="#1F1A17" stroke="#1F1A17" d="M300.317,113.789c12.223-0.912,24.502-0.326,36.748-0.439
		c15.014,0.934,30.332,1.947,44.604,7.091c4.761,1.823,10.197,4.57,11.559,9.938c0.281,4.277-2.983,7.833-5.999,10.467
		c-9.308,7.417-20.597,11.807-31.694,15.802c-35.397,11.975-72.584,17.929-109.736,20.979c-10.445,1.272-20.968,0.9-31.458,1.306
		c-19.572-0.023-39.505-0.338-58.425-5.954c-5.335-1.902-11.559-4.029-14.328-9.375c-1.846-5.335,2.589-10.006,6.449-13.022
		c10.467-7.867,22.994-12.335,35.262-16.556C221.16,122.028,260.755,116.243,300.317,113.789 M298.786,130.987
		c-8.982,0.878-17.986,1.317-26.944,2.487c-34.598,4.243-69.5,10.287-101.7,24.153c0.574,0.326,1.722,1.002,2.296,1.339
		c10.805,2.532,21.992,1.936,32.977,2.983c8.655,0.597,17.299-0.18,25.932-0.743c11.266-0.191,22.454-1.553,33.653-2.679
		c30.006-3.838,60.057-9.195,88.554-19.595c3.624-1.643,7.811-2.442,10.749-5.279C342.726,129.546,320.632,130.503,298.786,130.987z
		"/>
	<path fill="#1F1A17" stroke="#1F1A17" d="M387.701,230.031c6.427,0.36,12.718-1.362,19.145-1.125
		c13.123,0.135,26.258-0.338,39.37,0.259c6.933,1.407,14.046,0.315,21.013,1.463c71.987,5.402,142.95,23.41,209.309,51.773
		c2.319,0.777,5.155,1.351,7.305-0.191c9.578-6.235,18.773-13.157,29.027-18.289c23.658-12.437,51.086-16.545,77.547-14.328
		c27.26,2.769,53.799,10.951,78.436,22.825c7.901,2.926,14.823,7.834,22.386,11.469c24.693,14.249,47.913,31.12,68.824,50.479
		c5.155,3.815,9.274,8.768,13.9,13.18c4.209,4.412,8.869,8.419,12.786,13.112c3.613,4.952,8.509,8.801,11.998,13.877
		c18.076,21.486,33.889,45.088,45.155,70.884c5.414,14.08,10.591,28.486,11.75,43.658c1.835,9.297,0,19.719-6.28,27.023
		c-3.951,4.232-9.781,6.472-15.498,6.719c-12.696-1.002-22.769-9.702-32.876-16.545c-13.067-8.419-25.718-18.785-41.463-21.486
		c-8.43-2.409-17.085,0.732-24.356,4.952c-2.983,46.618-18.593,93.068-48.059,129.691c-4.66,5.144-9.409,10.208-13.832,15.566
		c-0.687,2.071-0.034,4.288,0.687,6.269c3.332,8.813,7.034,17.524,9.398,26.663c0.822,3.264,3.106,5.886,4.086,9.094
		c5.988,19.629,10.107,39.764,13.562,59.967c7.147-7.046,13.551-14.947,21.43-21.238c7.98-3.68,14.125-10.22,21.778-14.496
		c10.58-6.066,21.598-11.548,33.304-15.138c37.22-13.135,76.613-19.291,115.87-21.655c8.295,0.506,16.489-1.035,24.772-0.945
		c9.353-0.113,18.717-0.113,28.07,0.315c10.265,1.542,20.732-0.349,30.974,1.407c6.472,0.878,13.056-0.203,19.516,0.855
		c7.068,1.306,14.294,0.011,21.385,1.137c7.068,1.306,14.294-0.023,21.385,1.114c7.068,1.317,14.294-0.011,21.385,1.125
		c5.639,1.002,11.39,0.54,17.085,0.619c15.386,0.034,30.771,0.608,46.157,0.079c8.272-0.383,16.624,0.596,24.828-0.833
		c39.561-1.733,78.965-8.678,116.748-20.642c12.471-4.052,24.648-8.948,36.804-13.877c10.073-4.232,19.955-9.465,30.951-10.861
		c4.682-0.54,9.657,0.822,13.135,4.086c3.624,3.905,5.155,9.713,3.399,14.834c-5.076,22.082-21.79,38.65-37.468,53.889
		c-15.667,13.675-32.808,25.661-50.985,35.768c-7.788,3.827-15.003,8.779-23.174,11.807c-26.303,12.538-53.99,22.037-82.207,29.229
		c-39.561,10.355-80.237,16.027-120.946,18.773c-6.067-0.45-11.987,1.283-18.031,1.148c-8.272-0.011-16.533-0.056-24.795-0.034
		c-4.142-0.045-8.205,1.103-12.347,0.765c-13.022-1.745-26.224,0.023-39.291-1.08c-6.944-1.564-14.125-0.079-21.081-1.407
		c-3.433-0.687-6.944-0.574-10.411-0.551c0.079,0.664,0.225,1.992,0.304,2.656c19.921,15.374,44.817,22.161,69.263,26.202
		c9.387,1.272,18.717,3.23,28.227,3.309c6.742,1.294,13.664,0.619,20.417,1.913c13.472,0.529,27.023-0.484,40.428,1.216
		c12.673-1.339,25.47-1.058,38.211-1.058c4.558,0.011,9.173,0.18,13.709-0.608c7.575-1.193,15.296,0.09,22.893-0.889
		c8.734-1.677,17.727,0.18,26.449-1.688c13.112-0.371,26.247-0.394,39.359-0.079c11.863,1.621,24.142,4.074,34.114,11.097
		c4.716,3.827,8.542,9.803,7.867,16.095c-1.137,7.091-6.235,12.527-10.726,17.772c-16.432,15.273-37.817,23.545-58.909,30.163
		c-28.273,7.856-57.502,12.392-86.81,13.472c-9.038,1.452-18.233,0.675-27.339,0.889c-9.555-0.214-19.19,0.551-28.678-0.788
		c-26.303-1.092-52.538-4.007-78.583-8.002c-11.953-1.711-23.748-4.367-35.69-6.021c0.214,3.489,3.241,5.571,5.492,7.856
		c16.263,14.496,36.05,24.648,56.883,30.794c24.964,8.272,51.368,10.22,77.041,15.172c4.277,1.7,10.737,1.812,12.335,6.989
		c-1.351,6.224-7.181,9.826-11.165,14.316c-17.344,17.276-40.259,29.184-64.626,32.392c-10.051,1.148-20.248,2.712-30.355,1.069
		c-15.352-0.957-30.467-4.007-45.425-7.44c-4.885-1.193-9.691-2.757-14.688-3.286c0.056,0.687,0.169,2.071,0.225,2.769
		c1.137,0.9,2.307,1.801,3.478,2.735c-3.973,3.286-7.732,6.809-11.491,10.321c-4.322,6.607-11.424,10.512-17.918,14.654
		c-19.235,10.974-41.013,16.556-62.679,20.36c-30.715,4.918-61.869,6.258-92.933,6.168c-8.925,0.124-17.85-0.518-26.753-0.056
		c2.521,3.219,6.168,5.189,9.375,7.631c12.155,8.655,23.838,18.244,37.49,24.513c19.798,9.578,42.296,12.954,64.109,10.816
		c29.905-3.084,58.852-14.845,82.522-33.36c5.391-4.479,13.202-5.999,19.741-3.275c4.288,1.7,5.988,6.337,7.991,10.118
		c3.376,6.865,1.306,14.789-2.015,21.249c-16.635,39.201-39.246,75.983-67.755,107.666c-29.837,33.45-65.797,61.317-105.347,82.387
		c-39.933,21.429-83.388,35.96-127.879,44.333c-102.342,18.908-210.041,6.314-305.754-34.373
		c-53.157-22.769-102.702-54.891-142.95-96.602c-4.941-4.828-8.801-10.692-14.238-15.026c-14.35,18.245-27.744,37.22-41.621,55.836
		c-5.594,7.451-11.109,15.037-17.715,21.643c-6.404,5.763-14.058,11.491-23.073,11.435c-12.572-1.261-23.636-8.272-33.236-16.05
		c-13.922-11.998-25.977-26.044-36.399-41.148c-13.191-18.998-24.457-39.505-31.964-61.43c-4.502-14.024-8.385-29.173-4.806-43.838
		c1.992-9.195,7.8-17.322,15.678-22.409c30.557-21.902,68.34-28.824,102.376-43.332c-0.529-3.827-1.227-7.631-2.679-11.21
		c-36.084-5.335-71.773-15.183-104.334-31.874c-25.65-13.078-49.319-30.366-68.599-51.818
		c-27.732-29.713-46.348-67.395-54.924-107.013c-8.059-36.984-7.788-75.409-2.24-112.73c11.154-72.1,41.576-139.866,79.73-201.544
		c1.7-3.376,6.066-6.933,3.343-10.884c-6.708-13.45-16.455-25.087-23.714-38.211c-3.905-7.215-6.933-15.07-7.743-23.275
		c-0.799-7.237,1.531-14.249,3.095-21.204c10.388-42.296,31.739-82.117,62.713-112.876c3.647-3.489,6.911-7.552,11.446-9.938
		c4.074-2.127,7.485-5.245,10.917-8.239c20.664-16.072,43.354-29.634,67.688-39.336
		C300.767,241.443,344.245,233.115,387.701,230.031 M315.196,257.954c-35.622,8.655-70.197,22.758-100.383,43.737
		c-16.68,11.469-31.638,25.369-44.739,40.777c-20.619,24.536-35.239,53.855-43.647,84.716c-1.373,4.806-2.735,9.646-3.196,14.643
		l-1.103,0.034c-0.225,4.479-0.338,9.105,1.272,13.382c5.031,13.787,14.722,25.065,22.127,37.547
		c4.288,6.843,8.689,14.103,9.173,22.364c0.281,4.254-2.15,7.969-4.209,11.469c-18.908,29.826-35.521,61.115-49.421,93.574
		c-17.715,42.105-30.445,86.664-34.046,132.336c-0.101,9.432-1.598,18.818-1.058,28.261c0.855,12.684,1.272,25.414,3.5,37.952
		c3.253,20.901,9.387,41.317,18.222,60.541c15.363,33.27,40.045,61.981,69.95,83.062c29.893,21.148,64.559,34.857,100.181,42.78
		c34.091,7.586,69.14,10.174,103.996,9.691c7.226,0.056,14.406-1.711,21.643-0.833c-4.412,2.499-9.432,3.41-14.238,4.806
		c-10.895,2.971-21.936,5.402-33.022,7.563c-11.3,1.767-22.746,4.221-34.226,2.555c0.428,3.68,1.114,7.349,2.116,10.94
		c12.482,50.794,38.976,97.795,74.745,135.837c5.222,5.999,10.658,11.851,16.747,16.984
		c45.313,43.028,101.126,74.002,159.979,94.339c48.487,16.286,99.314,26.01,150.468,27.575c12.471,0.968,25.054,1.081,37.535,0.023
		c63.186-2.116,126.371-16.342,183.265-44.255c35.476-17.333,68.273-40.214,96.512-67.823
		c30.715-30.13,55.825-65.876,74.171-104.784c3.275-7.676,7.428-15.059,9.578-23.163c-5.279,2.859-9.983,6.618-15.014,9.859
		c-28.408,17.974-61.734,28.678-95.487,28.34c-21.339-0.833-42.69-5.774-61.509-16.072c-6.168-2.679-11.188-7.327-17.333-9.983
		c0.371,2.769,0.934,5.56,2.307,8.036c4.142,7.879,9.927,14.733,15.678,21.474c2.746,3.298,6.303,5.999,8.149,9.995
		c-6.607-0.101-12.583-3.41-17.862-7.068c-6.843-4.738-11.75-11.615-16.477-18.334c-6.573-10.118-12.099-20.867-18.526-31.075
		c-4.344-6.686-9.015-13.495-15.734-18.008c-5.256-3.602-11.784-4.187-17.772-5.853c-14.812-3.86-29.634-8.272-43.354-15.149
		c10.152-0.304,20.349-0.473,30.445,0.698c7.124,0.45,14.294,0.203,21.396,1.137c8.993,0.439,18.019,0.135,26.978,1.261
		c21.779,0.36,43.579,0.068,65.358,0.146c16.612-1.114,33.27-1.846,49.77-4.187c20.833-3.185,41.981-7.147,60.946-16.759
		c5.988-3.084,12.459-5.999,16.646-11.525c-10.298-7.98-16.545-19.674-22.049-31.188c-9.916-21.621-16.376-44.727-27.552-65.786
		c-8.453-17.085-20.946-33.304-38.717-41.317c-4.356-1.756-8.993-4.446-13.821-3.219c-32.054,9.612-62.623,23.635-92.01,39.539
		c-17.693,9.015-34.969,18.841-53.124,26.911c-21.632,9.859-44.48,17.524-68.127,20.552c-14.181,2.06-28.565,1.643-42.837,1.125
		c5.56-2.262,11.469-3.388,17.153-5.29c27.8-8.88,55.285-19.831,79.573-36.252c16.522-11.3,31.3-25.425,41.767-42.6
		c13.405-21.475,19.674-46.821,20.687-71.953c0.653-6.021,0.788-12.088,0.034-18.098c-0.934-34.384-8.554-68.25-18.638-101.025
		c-10.94-33.833-25.234-66.652-43.377-97.266c-3.163-5.526-7.034-10.681-9.398-16.624c8.081,4.344,14.204,11.379,20.687,17.715
		c11.581,12.414,22.443,25.684,30.4,40.766c4.885-3.658,8.464-8.666,12.144-13.461c16.522-21.79,27.586-47.372,34.069-73.844
		c6.066-26.28,8.059-53.563,5.2-80.406c-0.349-9.533-2.915-18.807-3.309-28.318c5.526,5.087,8.981,12.032,11.75,18.92
		c3.973,10.152,4.918,21.092,7.349,31.649c5.796-2.116,11.705-4.434,17.986-4.277c13.911-0.653,26.832,5.605,38.683,12.178
		c12.043,7.271,23.309,15.757,35.251,23.185c3.568,2.06,8.689,4.806,12.335,1.429c2.307-3.5,1.587-8.036,1.609-12.009
		c-1.373-16.995-6.899-33.439-14.271-48.734c-12.516-26.46-30.321-50.04-49.747-71.784c-26.427-28.396-56.59-53.529-90.276-72.876
		c-32.167-18.717-68.194-32.122-105.651-33.709c-24.997-0.326-50.726,5.639-71.379,20.169c3.275,3.376,7.552,5.425,11.413,8.014
		c4.952,3.275,9.916,6.55,14.879,9.837c14.575,9.443,27.507,21.722,36.736,36.511c4.941,7.788,9.882,15.723,12.718,24.558
		c-54.362-42.589-117.885-72.37-183.783-92.224c-43.478-12.943-88.284-21.52-133.518-24.986
		C415.962,243.683,364.56,245.709,315.196,257.954 M269.669,1063.431c-12.955,4.795-26.202,8.79-39.077,13.832
		c-13.934,5.492-27.991,11.469-39.64,21.092c-7.406,5.943-7.608,16.612-6.483,25.245c3.996,24.536,16.106,46.81,29.027,67.71
		c11.03,16.646,23.174,32.943,38.706,45.684c6.539,5.02,13.484,10.445,21.846,11.784c6.483-0.597,10.602-6.573,14.834-10.895
		c14.148-17.153,26.697-35.532,40.113-53.259c5.087-7.214,10.985-13.832,15.892-21.159c-20.957-27.665-38.121-58.278-49.623-91.076
		c-1.868-5.312-3.208-10.827-5.605-15.937C282.838,1058.31,276.411,1061.303,269.669,1063.431z"/>
	<path fill="#4D4948" stroke="#4D4948" d="M315.196,257.954c49.365-12.245,100.766-14.271,151.335-10.625
		c45.234,3.467,90.04,12.043,133.518,24.986c65.898,19.854,129.421,49.635,183.783,92.224c4.918,4.108,10.58,7.214,15.577,11.244
		c5.369,4.344,10.771,8.7,15.701,13.562c5.312,5.177,9.544,11.323,14.677,16.68c-2.319-12.02-4.963-24.401-2.476-36.624
		c1.947-9.173,8.104-17.828,17.175-21.002c13.922-4.896,29.218-2.24,42.78,2.566c13.675,5.031,26.618,12.369,37.389,22.262
		c3.399,3.196,6.888,6.674,8.115,11.345c-9.702,0.743-18.785-3.928-28.486-3.647c-6.089-0.304-13.596,1.587-15.948,7.912
		c-2.859,8.891-0.135,18.323,2.791,26.843c1.88,5.999,5.594,11.716,5.054,18.244c-1.272,15.78-4.491,31.604-11.221,46.022
		c-6.967,15.825-18.256,29.871-32.842,39.28c-14.722,9.724-32.077,14.947-49.545,16.736c-4.727,0.383-9.443,0.799-14.102,1.632
		c8.678,14.643,18.019,28.948,25.47,44.289c19.145,37.006,32.853,77.288,36.455,118.954c4.738,49.983-7.327,101.396-33.934,143.997
		c-10.985,17.411-23.467,34.035-38.447,48.216c-11.987,12.538-25.515,23.523-39.865,33.247
		c-9.927,6.562-20.169,12.786-31.323,17.051c-3.151,1.452-7.485,2.409-8.216,6.404c-8.362,30.512-10.265,63.658,0.09,93.946
		c10.85,32.448,34.497,59.145,62.24,78.47c19.359,13.641,40.619,24.423,62.645,33.022c5.853,2.037,11.458,5.132,17.67,5.954
		c2.566,0.349,4.57-2.172,4.435-4.592c0.191-9.544-3.5-18.56-5.909-27.654c-3.084-11.57-7.755-22.814-9.139-34.778
		c-0.248-2.701-0.022-7.766,3.86-7.136c7.811,1.396,14.564,6.066,21.204,10.197c30.4,21.013,57.637,46.202,87.722,67.654
		c11.413,7.586,23.14,16.432,37.423,16.984c1.351,8.599-2.78,16.702-7.62,23.489c-6.944,10.175-16.579,18.031-26.022,25.774
		c-28.273,21.216-60.214,37.052-93.056,49.882c-44.142,17.074-91.852,23.23-138.977,22.814
		c-43.039-1.137-86.011-7.856-127.013-21.103c-40.799-12.921-79.674-32.471-113.428-58.864
		c-38.019-30.051-69.038-70.209-83.613-116.793c-4.086-13.281-5.031-27.654-2.026-41.261c4.907-19.91,19.449-36.095,36.523-46.742
		c18.897-12.538,40.743-19.46,62.375-25.571c24.817-11.84,50.603-21.52,76.084-31.84c35.645-14.35,71.413-28.385,107.136-42.521
		c7.034-2.938,12.2-8.779,17.828-13.709c23.073-21.396,41.643-47.631,54.024-76.557c13.731-32.122,19.955-67.282,19.145-102.15
		c-1.193-41.182-11.514-81.925-29.139-119.112c-17.299-36.342-41.396-69.398-70.468-97.232
		c-26.224-24.705-56.196-45.526-88.825-60.867c-44.052-20.934-92.415-32.313-141.082-34.564
		c-10.917-0.045-21.846-1.328-32.763-0.394c-57.918,1.508-115.116,14.654-169.309,34.755c-6.742,2.251-13.202,6.438-20.563,5.931
		c-6.539-0.473-12.977-1.823-19.426-2.971c-12.223-2.51-24.525-4.671-36.748-7.181c-10.084-2.026-20.327-3.872-30.659-3.208
		c0.461-4.997,1.823-9.837,3.196-14.643c8.407-30.861,23.028-60.181,43.647-84.716c13.101-15.408,28.059-29.308,44.739-40.777
		C244.998,280.712,279.574,266.61,315.196,257.954z"/>
	<path fill="#383431" stroke="#383431" d="M708.086,285.619c20.653-14.53,46.382-20.495,71.379-20.169
		c37.457,1.587,73.484,14.992,105.651,33.709c33.686,19.347,63.85,44.48,90.276,72.876c19.426,21.745,37.232,45.324,49.747,71.784
		c7.372,15.296,12.898,31.739,14.271,48.734c-0.022,3.973,0.698,8.509-1.609,12.009c-3.647,3.376-8.768,0.63-12.335-1.429
		c-11.942-7.428-23.208-15.915-35.251-23.185c-11.852-6.573-24.772-12.831-38.683-12.178c-6.28-0.158-12.189,2.161-17.986,4.277
		c-2.431-10.557-3.376-21.497-7.349-31.649c-2.769-6.888-6.224-13.832-11.75-18.92c0.394,9.51,2.96,18.785,3.309,28.318
		c2.859,26.843,0.867,54.125-5.2,80.406c-6.483,26.472-17.547,52.054-34.069,73.844c-3.68,4.795-7.26,9.803-12.144,13.461
		c-7.957-15.082-18.818-28.351-30.4-40.766c-6.483-6.337-12.606-13.371-20.687-17.715c2.364,5.943,6.235,11.097,9.398,16.624
		c18.143,30.614,32.437,63.433,43.377,97.266c10.084,32.775,17.704,66.641,18.638,101.025c0.754,6.01,0.619,12.077-0.034,18.098
		c-1.013,25.132-7.282,50.479-20.687,71.953c-10.467,17.175-25.245,31.3-41.767,42.6c-24.288,16.421-51.773,27.372-79.573,36.252
		c-5.684,1.902-11.593,3.028-17.153,5.29c14.271,0.518,28.655,0.934,42.837-1.125c23.647-3.028,46.494-10.692,68.127-20.552
		c18.154-8.07,35.431-17.895,53.124-26.911c29.387-15.903,59.955-29.927,92.01-39.539c4.828-1.227,9.466,1.463,13.821,3.219
		c17.772,8.014,30.265,24.232,38.717,41.317c11.176,21.058,17.637,44.165,27.552,65.786c5.504,11.514,11.75,23.208,22.049,31.188
		c-4.187,5.526-10.659,8.441-16.646,11.525c-18.965,9.612-40.113,13.574-60.946,16.759c-16.5,2.341-33.157,3.073-49.77,4.187
		c-21.778-0.079-43.579,0.214-65.358-0.146c-8.959-1.125-17.985-0.822-26.978-1.261c-7.102-0.934-14.271-0.687-21.396-1.137
		c-10.096-1.171-20.293-1.002-30.445-0.698c13.72,6.877,28.543,11.289,43.354,15.149c5.988,1.666,12.516,2.251,17.772,5.853
		c6.719,4.513,11.39,11.322,15.734,18.008c6.427,10.208,11.953,20.957,18.526,31.075c4.727,6.719,9.634,13.596,16.477,18.334
		c5.279,3.658,11.255,6.967,17.862,7.068c-1.846-3.995-5.402-6.697-8.149-9.995c-5.751-6.742-11.536-13.596-15.678-21.474
		c-1.373-2.476-1.936-5.267-2.307-8.036c6.145,2.656,11.165,7.305,17.333,9.983c18.818,10.298,40.169,15.239,61.509,16.072
		c33.754,0.338,67.08-10.366,95.487-28.34c5.031-3.241,9.736-7.001,15.014-9.859c-2.15,8.104-6.303,15.487-9.578,23.163
		c-18.346,38.909-43.456,74.655-74.171,104.784c-28.239,27.609-61.036,50.49-96.512,67.823
		c-56.894,27.912-120.08,42.139-183.265,44.255c-12.482,1.058-25.065,0.945-37.535-0.023
		c-51.154-1.564-101.982-11.289-150.468-27.575c-58.852-20.338-114.666-51.312-159.979-94.339
		c-6.089-5.132-11.525-10.985-16.747-16.984c-35.768-38.042-62.263-85.043-74.745-135.837c-1.002-3.59-1.688-7.26-2.116-10.94
		c11.48,1.666,22.926-0.788,34.226-2.555c11.086-2.161,22.127-4.592,33.022-7.563c4.806-1.396,9.826-2.307,14.238-4.806
		c-7.237-0.878-14.418,0.889-21.643,0.833c-34.857,0.484-69.905-2.105-103.996-9.691c-35.622-7.923-70.288-21.632-100.181-42.78
		c-29.905-21.081-54.587-49.792-69.95-83.062c-8.835-19.224-14.969-39.64-18.222-60.541c-2.228-12.538-2.645-25.268-3.5-37.952
		c-0.54-9.443,0.957-18.83,1.058-28.261c3.602-45.673,16.331-90.231,34.046-132.336c13.9-32.459,30.512-63.748,49.421-93.574
		c2.06-3.5,4.491-7.214,4.209-11.469c-0.484-8.261-4.885-15.521-9.173-22.364c-7.406-12.482-17.096-23.759-22.127-37.547
		c-1.609-4.277-1.497-8.903-1.272-13.382l1.103-0.034c10.332-0.664,20.574,1.182,30.659,3.208
		c12.223,2.51,24.525,4.671,36.748,7.181c6.449,1.148,12.887,2.499,19.426,2.971c7.361,0.507,13.821-3.68,20.563-5.931
		c54.193-20.101,111.391-33.247,169.309-34.755c10.917-0.934,21.846,0.349,32.763,0.394c48.667,2.251,97.029,13.63,141.082,34.564
		c32.628,15.341,62.6,36.162,88.825,60.867c29.072,27.834,53.169,60.89,70.468,97.232c17.625,37.187,27.946,77.93,29.139,119.112
		c0.81,34.868-5.414,70.029-19.145,102.15c-12.381,28.925-30.951,55.161-54.024,76.557c-5.628,4.93-10.794,10.771-17.828,13.709
		c-35.723,14.136-71.492,28.171-107.136,42.521c-25.481,10.321-51.267,20-76.084,31.84c-21.632,6.111-43.478,13.033-62.375,25.571
		c-17.074,10.647-31.615,26.832-36.523,46.742c-3.005,13.607-2.06,27.98,2.026,41.261c14.575,46.584,45.594,86.742,83.613,116.793
		c33.754,26.393,72.629,45.943,113.428,58.864c41.002,13.247,83.974,19.966,127.013,21.103c47.125,0.417,94.835-5.74,138.977-22.814
		c32.842-12.831,64.784-28.666,93.056-49.882c9.443-7.743,19.077-15.599,26.022-25.774c4.84-6.787,8.97-14.89,7.62-23.489
		c-14.283-0.552-26.01-9.398-37.423-16.984c-30.085-21.452-57.322-46.641-87.722-67.654c-6.641-4.131-13.393-8.801-21.204-10.197
		c-3.883-0.63-4.108,4.434-3.86,7.136c1.384,11.964,6.055,23.208,9.139,34.778c2.409,9.094,6.1,18.109,5.909,27.654
		c0.135,2.42-1.868,4.941-4.435,4.592c-6.213-0.822-11.818-3.917-17.67-5.954c-22.026-8.599-43.287-19.381-62.645-33.022
		c-27.744-19.325-51.39-46.022-62.24-78.47c-10.355-30.287-8.453-63.433-0.09-93.946c0.732-3.996,5.065-4.952,8.216-6.404
		c11.154-4.266,21.396-10.49,31.323-17.051c14.35-9.724,27.879-20.709,39.865-33.247c14.98-14.181,27.462-30.805,38.447-48.216
		c26.607-42.6,38.672-94.013,33.934-143.997c-3.602-41.666-17.31-81.948-36.455-118.954c-7.451-15.341-16.793-29.646-25.47-44.289
		c4.66-0.833,9.375-1.249,14.102-1.632c17.468-1.79,34.823-7.012,49.545-16.736c14.586-9.409,25.875-23.455,32.842-39.28
		c6.73-14.418,9.949-30.242,11.221-46.022c0.54-6.528-3.174-12.245-5.054-18.244c-2.926-8.52-5.65-17.952-2.791-26.843
		c2.352-6.325,9.859-8.216,15.948-7.912c9.702-0.281,18.785,4.389,28.486,3.647c-1.227-4.671-4.716-8.149-8.115-11.345
		c-10.771-9.893-23.714-17.231-37.389-22.262c-13.562-4.806-28.858-7.462-42.78-2.566c-9.072,3.174-15.228,11.829-17.175,21.002
		c-2.487,12.223,0.158,24.603,2.476,36.624c-5.132-5.357-9.364-11.503-14.677-16.68c-4.93-4.862-10.332-9.218-15.701-13.562
		c-4.997-4.029-10.658-7.136-15.577-11.244c-2.836-8.835-7.777-16.77-12.718-24.558c-9.229-14.789-22.161-27.068-36.736-36.511
		c-4.964-3.286-9.927-6.562-14.879-9.837C715.638,291.044,711.361,288.996,708.086,285.619 M235.601,456.437
		c-2.454,0.844-4.727,2.105-6.877,3.545c6.494,0.281,12.763-1.632,19.122-2.6c18.346-2.915,36.894-4.986,55.498-4.637
		c14.395,0.45,30.231,1.79,41.621,11.615c-8.171,3.309-16.725,5.56-24.817,9.094c-39.077,15.453-74.598,39.415-104.356,69.004
		c-23.129,23.849-42.938,51.086-57.468,81.014c-32.516,64.953-40.552,141.712-22.386,212.022
		c6.483,23.602,19.043,45.436,35.949,63.118c24.592,25.313,57.198,41.452,90.884,50.906c42.398,11.615,86.877,14.316,130.614,11.21
		c34.44-2.352,68.599-8.329,101.959-17.175c32.921-8.981,65.223-20.574,95.724-35.948c26.652-13.011,52.043-28.824,74.835-47.856
		c9.781-7.788,18.301-16.973,27.091-25.83c20.439-22.465,36.725-49.443,43.399-79.28c4.885-21.069,4.243-43.185-0.743-64.165
		c-8.227-34.272-24.097-66.427-44.401-95.105c-42.026-58.886-101.712-104.255-168.172-132.258
		c-43.174-18.346-89.657-28.678-136.49-30.884C335.32,430.111,283.682,438.564,235.601,456.437 M978.409,872.861
		c-2.645,2.69-3.377,6.64-3.523,10.287c-0.473,11.323,2.938,22.319,6.798,32.831c7.552,19.708,17.772,38.897,33.157,53.641
		c7.71,8.194,16.567,15.341,26.404,20.833c5.211,3.061,11.244,5.189,17.355,3.996c-1.069-4.862-3.782-9.105-5.357-13.765
		c-5.29-15.273-9.623-30.918-16.196-45.718c-7.35-16.162-16.241-31.773-27.777-45.324c-6.55-6.652-12.774-14.339-21.778-17.727
		C984.565,870.655,980.907,870.722,978.409,872.861z"/>
	<path fill="#1F1A17" stroke="#1F1A17" d="M235.601,456.437c48.081-17.873,99.719-26.325,150.986-24.21
		c46.832,2.206,93.315,12.538,136.49,30.884c66.461,28.002,126.146,73.371,168.172,132.258
		c20.304,28.678,36.174,60.833,44.401,95.105c4.986,20.979,5.628,43.095,0.743,64.165c-6.674,29.837-22.96,56.815-43.399,79.28
		c-8.79,8.858-17.31,18.042-27.091,25.83c-22.791,19.032-48.183,34.845-74.835,47.856c-30.501,15.374-62.803,26.967-95.724,35.948
		c-33.36,8.846-67.519,14.823-101.959,17.175c-43.737,3.106-88.217,0.405-130.614-11.21c-33.686-9.454-66.292-25.594-90.884-50.906
		c-16.905-17.682-29.466-39.516-35.949-63.118c-18.166-70.31-10.13-147.069,22.386-212.022
		c14.53-29.927,34.339-57.164,57.468-81.014c29.758-29.589,65.279-53.551,104.356-69.004c8.092-3.534,16.646-5.785,24.817-9.094
		c-11.39-9.826-27.226-11.165-41.621-11.615c-18.605-0.349-37.153,1.722-55.498,4.637c-6.359,0.968-12.628,2.881-19.122,2.6
		C230.873,458.541,233.147,457.281,235.601,456.437 M360.711,510.708c-40.574,10.22-78.436,30.355-110.22,57.479
		c-32.414,27.676-58.841,62.387-76.613,101.138c-17.344,37.738-26.494,79.719-23.095,121.284
		c2.667,31.379,12.437,62.961,32.347,87.789c12.527,15.847,28.948,28.408,47.046,37.265c3.343,1.666,7.169,2.285,10.884,1.835
		c8.813-1.002,17.367-3.467,26.022-5.312c1.576-0.608,3.793-0.619,4.693-2.251c0.349-5.076-4.299-8.88-4.063-13.911
		c16.275,9.556,25.898,27.08,41.666,37.322c4.525,3.061,10.163,2.679,15.363,3.073c10.681,0.54,21.407,0.675,32.088,0.09
		c0.281-0.27,0.855-0.81,1.148-1.081c1.497-4.761,0.709-9.927,2.138-14.699c0.36-2.138,2.915-1.508,4.198-0.687
		c6.776,4.063,11.683,10.827,18.886,14.204c18.717-1.317,37.232-5.166,55.667-8.633c1.643-0.529,4.052-0.36,4.761-2.307
		c2.442-6.168,1.441-13.326,4.93-19.134c6.46,3.118,9.072,10.647,14.463,15.115c1.013,1.114,2.589,0.36,3.838,0.203
		c8.306-2.116,16.657-4.052,24.885-6.438c7.507-2.172,15.611-3.59,21.812-8.711c11.908-9.454,19.145-23.14,27.372-35.622
		c8.61-13.393,17.366-28.025,31.964-35.622c0.023,0.608,0.079,1.846,0.101,2.465c-3.264,8.171-9.758,15.138-11.03,24.029
		c8.329-1.013,16.646-2.285,25.042-2.476c12.257-1.182,24.761-1.238,36.691-4.637c4.626-1.238,8.633-3.951,12.167-7.102
		c13.236-11.131,25.38-23.737,34.857-38.267c10.625-16.038,17.839-34.395,20.608-53.461c4.671-31.278-2.183-63.253-14.474-92.055
		c-17.074-39.46-45.481-73.439-79.427-99.573c-37.153-28.622-81.362-48.093-127.643-55.78
		C433.621,500.23,396.243,501.659,360.711,510.708z"/>
	<path fill="#C2C1C1" stroke="#C2C1C1" d="M360.711,510.708c35.532-9.049,72.91-10.478,109.072-4.468
		c46.281,7.687,90.49,27.158,127.643,55.78c33.945,26.134,62.353,60.113,79.427,99.573c12.291,28.802,19.145,60.777,14.474,92.055
		c-2.769,19.066-9.983,37.423-20.608,53.461c-9.477,14.53-21.621,27.136-34.857,38.267c-3.534,3.151-7.541,5.864-12.167,7.102
		c-11.93,3.399-24.435,3.455-36.691,4.637c-8.396,0.191-16.714,1.463-25.042,2.476c1.272-8.891,7.766-15.858,11.03-24.029
		c-0.023-0.619-0.079-1.857-0.101-2.465c4.378-1.643,9.049-2.195,13.585-3.298c20.248-4.919,40.057-12.786,56.905-25.234
		c12.201-9.195,22.724-20.901,29.364-34.744c9.814-19.753,11.244-42.983,6.269-64.289c-8.216-34.924-31.874-65.617-62.781-83.58
		c-14.429-8.149-29.792-14.575-45.526-19.719c-41.869-13.45-87.508-14.643-130.097-3.827
		c-55.037,14.001-104.964,47.249-139.168,92.55c2.712,6.247,6.55,11.908,9.398,18.087c8.498,17.468,15.273,36.264,15.881,55.859
		c0.551,15.915-4.423,32.324-15.217,44.243c-14.575,16.072-36.421,24.795-57.986,24.547c0.574,15.059,4.063,29.86,7.53,44.48
		c1.913,6.01,2.499,12.842,6.663,17.85c-0.236,5.031,4.412,8.835,4.063,13.911c-0.9,1.632-3.118,1.643-4.693,2.251
		c-8.655,1.846-17.209,4.311-26.022,5.312c-3.714,0.45-7.541-0.169-10.884-1.835c-18.098-8.858-34.519-21.418-47.046-37.265
		c-19.91-24.829-29.679-56.41-32.347-87.789c-3.399-41.565,5.751-83.546,23.095-121.284c17.772-38.751,44.198-73.461,76.613-101.138
		C282.275,541.063,320.137,520.928,360.711,510.708 M233.946,684.632c-9.342,1.958-18.076,6.528-25.177,12.887
		c-12.493,11.142-19.888,27.316-21.655,43.838c-1.846,18.098,2.319,36.86,12.189,52.201c8.329,13.067,20.867,23.703,35.69,28.565
		c14.586,4.952,31.255,3.388,44.592-4.344c12.853-7.349,22.33-19.798,27.237-33.652c11.66-32.302-0.518-72.156-29.634-90.952
		C264.593,684.88,248.769,681.424,233.946,684.632z"/>
	<path fill="#FFFFFF" stroke="#FFFFFF" d="M440.611,598.407c42.589-10.816,88.228-9.623,130.097,3.827
		c15.735,5.143,31.098,11.57,45.526,19.719c30.906,17.963,54.564,48.655,62.781,83.58c4.975,21.306,3.545,44.536-6.269,64.289
		c-6.641,13.844-17.164,25.549-29.364,34.744c-16.849,12.448-36.658,20.315-56.905,25.234c-4.536,1.103-9.207,1.654-13.585,3.298
		c-14.598,7.597-23.354,22.229-31.964,35.622c-8.227,12.482-15.464,26.168-27.372,35.622c-6.202,5.121-14.305,6.539-21.812,8.711
		c-8.227,2.386-16.579,4.322-24.885,6.438c-1.249,0.158-2.825,0.912-3.838-0.203c-5.391-4.468-8.002-11.998-14.463-15.115
		c-3.489,5.808-2.487,12.966-4.93,19.134c-0.709,1.947-3.118,1.778-4.761,2.307c-18.436,3.467-36.95,7.316-55.667,8.633
		c-7.203-3.376-12.11-10.141-18.886-14.204c-1.283-0.822-3.838-1.452-4.198,0.687c-1.429,4.772-0.642,9.938-2.138,14.699
		c-0.293,0.27-0.867,0.81-1.148,1.081c-10.681,0.585-21.407,0.45-32.088-0.09c-5.2-0.394-10.839-0.011-15.363-3.073
		c-15.768-10.242-25.391-27.766-41.666-37.322c-4.164-5.008-4.75-11.84-6.663-17.85c-3.467-14.62-6.956-29.421-7.53-44.48
		c21.565,0.248,43.411-8.475,57.986-24.547c10.794-11.919,15.768-28.329,15.217-44.243c-0.608-19.595-7.383-38.391-15.881-55.859
		c-2.848-6.179-6.685-11.84-9.398-18.087C335.646,645.656,385.574,612.409,440.611,598.407 M505.226,621.514
		c-21.238,2.645-41.148,14.373-53.731,31.683c-12.617,16.995-18.053,39.156-14.451,60.034c2.825,18.413,12.538,35.633,26.708,47.699
		c13.529,11.649,31.075,18.56,48.926,19.145c14.283,0.405,28.734-2.847,41.261-9.803c18.064-9.837,31.942-27.035,37.851-46.731
		c5.256-17.096,4.322-35.948-2.24-52.561c-7.057-17.929-20.923-33.067-38.188-41.655
		C537.246,622.11,520.926,619.375,505.226,621.514z"/>
	<path fill="#1F1A17" stroke="#1F1A17" d="M505.226,621.514c15.701-2.138,32.021,0.596,46.134,7.811
		c17.265,8.588,31.131,23.726,38.188,41.655c6.562,16.612,7.496,35.465,2.24,52.561c-5.909,19.696-19.786,36.894-37.851,46.731
		c-12.527,6.956-26.978,10.208-41.261,9.803c-17.85-0.585-35.397-7.496-48.926-19.145c-14.17-12.065-23.883-29.286-26.708-47.699
		c-3.602-20.878,1.835-43.039,14.451-60.034C464.077,635.886,483.987,624.159,505.226,621.514z"/>
	<path fill="#1F1A17" stroke="#1F1A17" d="M233.946,684.632c14.823-3.208,30.647,0.248,43.242,8.543
		c29.117,18.796,41.295,58.65,29.634,90.952c-4.907,13.855-14.384,26.303-27.237,33.652c-13.337,7.732-30.006,9.297-44.592,4.344
		c-14.823-4.862-27.361-15.498-35.69-28.565c-9.871-15.341-14.035-34.103-12.189-52.201c1.767-16.522,9.162-32.696,21.655-43.838
		C215.87,691.16,224.604,686.59,233.946,684.632z"/>
	<path fill="#1F1A17" stroke="#1F1A17" d="M978.409,872.861c2.499-2.138,6.156-2.206,9.083-0.945
		c9.004,3.388,15.228,11.075,21.778,17.727c11.536,13.551,20.428,29.162,27.777,45.324c6.573,14.8,10.906,30.445,16.196,45.718
		c1.576,4.659,4.288,8.903,5.357,13.765c-6.112,1.193-12.144-0.934-17.355-3.996c-9.837-5.492-18.695-12.639-26.404-20.833
		c-15.386-14.744-25.605-33.934-33.157-53.641c-3.86-10.512-7.271-21.508-6.798-32.831
		C975.032,879.501,975.764,875.551,978.409,872.861z"/>
	<path fill="#383431" stroke="#383431" d="M269.669,1063.431c6.742-2.127,13.168-5.121,19.989-6.978
		c2.397,5.11,3.737,10.625,5.605,15.937c11.503,32.797,28.667,63.411,49.623,91.076c-4.907,7.327-10.805,13.945-15.892,21.159
		c-13.416,17.727-25.965,36.106-40.113,53.259c-4.232,4.322-8.351,10.298-14.834,10.895c-8.362-1.339-15.307-6.764-21.846-11.784
		c-15.532-12.741-27.676-29.038-38.706-45.684c-12.921-20.901-25.031-43.174-29.027-67.71c-1.126-8.633-0.923-19.302,6.483-25.245
		c11.649-9.623,25.706-15.599,39.64-21.092C243.468,1072.221,256.715,1068.225,269.669,1063.431z"/>
	<path fill="#383431" stroke="#383431" d="M716.707,1514.914c11.086-0.72,22.296-0.698,33.36,0.405
		c10.456,0.214,20.957-0.405,31.39,0.596c5.954,0.979,12.02,0.146,17.986,1.081c5.819,1.047,11.795,0.124,17.614,1.328
		c23.444,1.733,46.753,5.031,69.95,8.846c26.731,5.042,53.461,11.064,78.65,21.553c10.985,4.389,21.441,10.366,30.298,18.255
		c4.187,4.435,7.867,9.972,8.284,16.241c-0.833,9.285-7.743,16.725-15.014,21.925c-5.2,4.187-11.368,6.809-17.265,9.814
		c-8.441,4.547-17.614,7.44-26.629,10.568c-27.215,8.464-55.285,13.855-83.456,17.929c-24.311,3.028-48.689,5.875-73.169,6.753
		c-7.563,1.328-15.262,0.765-22.893,0.878c-20.192,1.609-40.507,0.923-60.743,0.731c-10.253-1.508-20.664,0.034-30.917-1.519
		c-30.67-1.441-61.284-4.727-91.627-9.578c-24.558-4.187-49.038-9.353-72.629-17.468c-13.348-4.558-26.584-10.017-38.076-18.334
		c-6.033-5.031-12.077-10.76-14.44-18.481c-1.047-4.727,1.08-9.42,3.309-13.45c6.472-8.802,15.723-15.116,25.571-19.606
		c8.396-4.547,17.333-7.924,26.427-10.771c21.767-7.698,44.457-12.223,67.136-16.241c21.294-3.365,42.656-6.393,64.165-7.912
		c6.111-1.227,12.403-0.45,18.537-1.486c5.639-0.901,11.39-0.101,17.04-0.945C691.89,1514.543,704.36,1516.085,716.707,1514.914z"/>
</g>
</svg>
